# xmcd
#
# Track frame offsets:
#	150
#	12683
#	26291
#	39493
#	53331
#	66805
#	78791
#	94028
#	106964
#	119113
#	134145
#	148304
#
# Disc length: 2130 seconds
#
# Revision: 0
# Processed by: cddbd v1.5.1PL0 Copyright (c) Steve Scherf et al.
# Submitted via: dBpowerAMP V4.0
#
DISCID=a508500c
DTITLE=Jimmie Rodgers - Yodeling King
DYEAR=1900
DGENRE=Bluegrass
TTITLE0=Travelin' Blues
TTITLE1=T.B. Blues
TTITLE2=In the Jailhouse Now
TTITLE3=I'm Free
TTITLE4=Blue Yodel No. 8
TTITLE5=Blue Yodel No. 9
TTITLE6=Blue Yodel No. 12
TTITLE7=Dreamin with Tears in My Eyes
TTITLE8=Let me be Your Side Track
TTITLE9=I'm Lonesome Too
TTITLE10=Why There's a Tear in my Eye
TTITLE11=Yodeling my Way Back Home
EXTD=
EXTT0=
EXTT1=
EXTT2=
EXTT3=
EXTT4=
EXTT5=
EXTT6=
EXTT7=
EXTT8=
EXTT9=
EXTT10=
EXTT11=
PLAYORDER=
